<svg width="16" height="16" viewBox="0 0 16 16" fill="none" xmlns="http://www.w3.org/2000/svg">
<path d="M7.3191 9.17884L1.85548 5.53629C1.52855 5.31845 1.33334 4.95387 1.33334 4.56103C1.33334 3.88382 1.88379 3.3334 2.56035 3.33337H13.4397C14.1162 3.33337 14.6667 3.88379 14.6667 4.56038C14.6667 4.95387 14.4715 5.31845 14.1445 5.53629L8.68092 9.17884C8.4741 9.31671 8.23704 9.38567 7.99998 9.38567C7.76295 9.38567 7.52592 9.31673 7.3191 9.17884Z" fill="#FDFDFD"/>
<path d="M8.00001 10.1669C8.39728 10.1669 8.78259 10.05 9.11431 9.82887L14.5777 6.18645C14.6081 6.16621 14.6377 6.14509 14.6667 6.12337V12.0921C14.6667 12.7642 14.1236 13.3195 13.4392 13.3195H2.56077C1.88868 13.3195 1.33334 12.7764 1.33334 12.0921V6.1234C1.36228 6.14507 1.39181 6.16613 1.42212 6.18634L6.88574 9.82887C7.21746 10.05 7.60277 10.1669 8.00001 10.1669Z" fill="#FDFDFD"/>
</svg>
