<svg width="16" height="16" viewBox="0 0 16 16" fill="none" xmlns="http://www.w3.org/2000/svg">
<path fill-rule="evenodd" clip-rule="evenodd" d="M15.9324 9.04487L14.9408 8.91553C14.9798 8.61633 15 8.31077 15 8C15 7.68923 14.9798 7.38367 14.9408 7.08447L15.9324 6.95513C15.977 7.2971 16 7.64586 16 8C16 8.35414 15.977 8.7029 15.9324 9.04487ZM15.393 4.9377L14.4692 5.32075C14.2335 4.75221 13.9247 4.22105 13.5543 3.73905L14.3472 3.12973C14.7702 3.68022 15.1233 4.28732 15.393 4.9377ZM12.8703 1.6528L12.2609 2.44572C11.7789 2.07533 11.2478 1.76653 10.6792 1.53077L11.0623 0.607044C11.7127 0.876746 12.3198 1.22977 12.8703 1.6528ZM9.04487 0.0676182L8.91553 1.05922C8.61633 1.02019 8.31077 1 8 1C7.68923 1 7.38367 1.02019 7.08447 1.05922L6.95513 0.0676183C7.2971 0.0230106 7.64586 0 8 0C8.35414 0 8.7029 0.0230106 9.04487 0.0676182ZM4.9377 0.607044L5.32075 1.53077C4.75221 1.76653 4.22105 2.07533 3.73905 2.44572L3.12973 1.6528C3.68022 1.22977 4.28732 0.876746 4.9377 0.607044ZM1.6528 3.12973L2.44572 3.73905C2.07533 4.22105 1.76653 4.75221 1.53077 5.32075L0.607044 4.9377C0.876746 4.28732 1.22977 3.68022 1.6528 3.12973ZM0.0676182 6.95513C0.0230106 7.2971 0 7.64586 0 8C0 8.35414 0.0230106 8.7029 0.0676184 9.04487L1.05922 8.91553C1.02019 8.61633 1 8.31077 1 8C1 7.68923 1.02019 7.38367 1.05922 7.08447L0.0676182 6.95513ZM0.607044 11.0623L1.53077 10.6792C1.76653 11.2478 2.07533 11.7789 2.44572 12.2609L1.6528 12.8703C1.22977 12.3198 0.876746 11.7127 0.607044 11.0623ZM3.12973 14.3472L3.73905 13.5543C4.22105 13.9247 4.75221 14.2335 5.32075 14.4692L4.9377 15.393C4.28732 15.1233 3.68022 14.7702 3.12973 14.3472ZM6.95513 15.9324L7.08447 14.9408C7.38367 14.9798 7.68923 15 8 15C8.31077 15 8.61633 14.9798 8.91553 14.9408L9.04488 15.9324C8.7029 15.977 8.35414 16 8 16C7.64586 16 7.2971 15.977 6.95513 15.9324ZM11.0623 15.393L10.6792 14.4692C11.2478 14.2335 11.7789 13.9247 12.2609 13.5543L12.8703 14.3472C12.3198 14.7702 11.7127 15.1233 11.0623 15.393ZM14.3472 12.8703L13.5543 12.2609C13.9247 11.7789 14.2335 11.2478 14.4692 10.6792L15.393 11.0623C15.1233 11.7127 14.7702 12.3198 14.3472 12.8703Z" fill="white">
        <animateTransform attributeName="transform"
                          attributeType="XML"
                          type="rotate"
                          from="0 8 8"
                          to="360 8 8"
                          dur="3s"
                          repeatCount="indefinite"/>
                          </path>
</svg>
