<svg width="17" height="16" viewBox="0 0 17 16" fill="none" xmlns="http://www.w3.org/2000/svg">
<path d="M8.81848 14.6667C7.6325 14.6664 6.46806 14.3498 5.44526 13.7494C4.42245 13.1491 3.57832 12.2867 2.99992 11.2514C2.42151 10.216 2.12978 9.04507 2.15481 7.85935C2.17983 6.67364 2.52071 5.51606 3.14229 4.50602C3.76386 3.49597 4.64363 2.67002 5.69085 2.11336C6.73807 1.5567 7.91483 1.28947 9.09977 1.33925C10.2847 1.38902 11.4349 1.75399 12.4318 2.39652C13.4286 3.03905 14.236 3.93587 14.7707 4.99448C14.8062 5.05985 14.8282 5.13168 14.8355 5.20572C14.8427 5.27976 14.835 5.3545 14.8128 5.42551C14.7906 5.49651 14.7543 5.56233 14.7062 5.61907C14.6581 5.6758 14.5991 5.72229 14.5327 5.75579C14.4662 5.78928 14.3938 5.80909 14.3195 5.81404C14.2453 5.81899 14.1708 5.80899 14.1005 5.78462C14.0303 5.76025 13.9656 5.72201 13.9103 5.67217C13.8551 5.62233 13.8105 5.5619 13.779 5.49448C13.216 4.3796 12.2936 3.48699 11.1609 2.96071C10.0282 2.43443 8.75122 2.3052 7.53604 2.59387C6.32086 2.88254 5.2384 3.57227 4.46339 4.55173C3.68837 5.5312 3.26602 6.74324 3.2645 7.99224C3.26298 9.24123 3.68238 10.4543 4.45501 11.4357C5.22764 12.417 6.30841 13.1094 7.52288 13.401C8.73736 13.6926 10.0147 13.5665 11.1487 13.043C12.2826 12.5195 13.2071 11.6291 13.7729 10.5156C13.8423 10.3889 13.9584 10.2942 14.0965 10.2517C14.2345 10.2091 14.3837 10.222 14.5124 10.2877C14.6411 10.3533 14.7392 10.4664 14.7859 10.6032C14.8325 10.7399 14.8241 10.8894 14.7624 11.02C14.2071 12.1191 13.3571 13.0422 12.3075 13.6862C11.2579 14.3302 10.0499 14.6696 8.81848 14.6667Z" fill="#FDFDFD">
        <animateTransform attributeName="transform"
                          attributeType="XML"
                          type="rotate"
                          from="0 8 8"
                          to="360 8 8"
                          dur="1.5s"
                          repeatCount="indefinite"/>
                          </path>
</svg>
